<svg version="1.1" id="Layer_1" xmlns="http://www.w3.org/2000/svg" x="0" y="0" viewBox="0 0 493 134" xml:space="preserve"><style>.st0{fill:#f15d22}</style><path class="st0" d="M98.3 110h2v5h1.1v-5h2.1v-1.1h-5.2zm10.3-1.1l-1.8 2.3-1.9-2.3h-1v6.1h1.1v-4.2l1.6 2h.3l1.5-2v4.2h1.2v-6.1z"/><circle cx="56.1" cy="64.9" r="53.1" fill="#ffef6f"/><path class="st0" d="M22.6 51.6s2.3-.3 5.5-.3c2.9 0 7.1.3 10.8 1.4-1.8 1.1-3.5 2.4-4.9 4.1-3.1 3.7-4.5 8.4-4.1 13.2 0 .2.2.4.4.4h.1c.2 0 .3-.1.4-.2S38.3 59.9 47 59.4c.1 0 .2 0 .2-.1.1 0 .2.1.3 0 .5-.1 1-.1 1.6-.1 8.2 0 16.2 7.7 16.3 7.8.1.1.2.1.3.1h.2c.2-.1.3-.3.3-.5-.7-7.3-5.5-13.1-12-15.4 6.6-3.5 15.7-4.1 15.8-4.1.2 0 .4-.1.4-.3.1-.2 0-.4-.2-.5-3.2-2.7-7.3-4.2-11.5-4.2-4.8 0-9.3 1.9-12.7 5.2-3-2-6.5-3.1-10.1-3.1-5.4 0-10.4 2.4-13.9 6.5 0 .2 0 .5.1.6.1.2.3.3.5.3zm46.8 9.5c-.3.2-.4.6-.3 1 .1.3.4.6.8.6.1 0 5.9.4 10.5 2.5-4.5 2-7.7 6.3-8.2 11.4 0 .4.2.7.5.9.1.1.3.1.4.1.2 0 .5-.1.6-.2s5.9-5.6 11.8-5.6c.4 0 .8 0 1.1.1h.4c6.3.4 11.6 7.8 11.7 7.9.2.2.4.4.7.4h.2c.4-.1.6-.4.7-.8.3-3.7-.8-7.3-3.1-10.2-.8-1-1.8-1.8-2.8-2.5 2.4-.6 4.9-.7 6.7-.7 2.3 0 4 .2 4.1.2h.1c.5 0 .9-.4.9-.9 0-.3-.1-.5-.3-.7-2.7-3.1-6.5-4.9-10.7-4.9-2.7 0-5.2.8-7.5 2.2-2.6-2.4-6-3.8-9.5-3.8-3.1-.2-6.3.9-8.8 3z"/><path class="st0" d="M122 97.6v-.3c0-.8-.5-1.4-1.3-1.5h-.3c-1.9 0-3.9.1-5.8.1h-.1c-1.9.1-3.8.1-5.6.2h-.7c-1.5.1-3.1.2-4.6.3-.7 0-1.3.1-2 .2l-3 .3c-.5 0-1.1.1-1.6.1h-.1c-4 .4-8 .9-11.8 1.4 1.3-6.4 2.6-14.3 3.3-23.5.1-1.1-.7-2.1-1.8-2.1-1.1-.1-2.1.7-2.1 1.8-.7 9.7-2.1 17.9-3.5 24.4-10.5 1.6-20.3 3.7-29 5.9.5-9.9.3-23.9-2-41.1-.1-1.1-1.2-1.9-2.2-1.7-1.1.1-1.9 1.2-1.7 2.2 2.3 17.5 2.4 31.8 1.9 41.6-5.5 1.5-10.5 3-15 4.5-.1 0-.2 0-.3.1-14.4 4.7-23.4 8.8-24.1 9.2h-.1c-.8.4-1.1 1.3-.7 2.1.3.6.8.9 1.4.9.2 0 .5 0 .7-.2h.1c1.1-.5 15.6-7.2 38-13.3-.5 7.3-1.3 11.4-1.3 11.5-.2 1.1.5 2.1 1.6 2.3h.4c.9 0 1.8-.7 2-1.6.1-.4 1-5.1 1.5-13.4 8.5-2.2 18.1-4.3 28.4-5.9-2.1 8.5-4 13.2-4.1 13.3-.4 1 0 2.2 1.1 2.6.3.1.5.2.8.2.8 0 1.5-.5 1.8-1.2.2-.4 2.4-5.8 4.7-15.5 4.5-.6 9.1-1.2 13.9-1.7 1.4-.1 2.7-.2 4.1-.4.4 0 .9-.1 1.3-.1 1.7-.1 3.4-.2 5.2-.3h.4c3.8-.2 7.7-.3 11.5-.4.6 0 1.1-.4 1.4-.9-.8.2-.7.1-.7-.1z"/><path class="st0" d="M7.5 109.1c.1 0 .1-.1.2-.1h.1s.1 0 .2-.1c2.8-1.2 14.1-5.9 30.8-10.6.8-.2 1.3-1.1 1.1-1.9s-1.1-1.3-1.9-1.1c-7.4 2.1-13.8 4.2-18.8 6-8.3 2.9-12.9 5-13.1 5.1-.8.4-1.1 1.3-.8 2.1.3.6.8.9 1.4.9.2 0 .4 0 .6-.1 0-.1.1-.1.2-.2zm163.6-35.7c-4.1 1.9-8.7 3.1-12.8 3.1-14.5 0-27.6-11.9-27.6-28.7 0-13.9 9.9-25 23-27 9.9-1.4 18.6 1.1 25.3 8.2 2.5 2.9-2 6.4-4.4 3.8-5.8-6.1-12.5-7.1-20-6.2-10.5 1.6-17.9 9-17.9 21.3 0 12.9 9.9 22.8 21.7 22.8 3.1 0 6.6-.8 9.9-2.5 2.6-1.4 5.2-3.4 7-5.7 2-2.9 7.1.3 4.9 3.4-2.2 3.2-5.4 5.7-9.1 7.5z"/><path class="st0" d="M194.1 33.4c2.8-1.3 5.9-1.7 9.1-1.6 4.8.1 10.4 1.6 13.4 6.6v-3.3c0-1.8 1.1-3.1 3.1-3.1 1.9 0 3.1 1.3 3.1 3.1v37.7c0 1.9-1.3 3.1-3.1 3.1-2 0-3.1-1.2-3.1-3.1v-4.1c-2.5 4.9-8.8 7.7-13.8 7.7-4.1 0-8.7-1.1-12.2-3.7-6.5-4.4-9.8-11.6-9.5-20 .1-8.4 4.9-16.3 13-19.3zm22.5 24v-6.7c0-8.4-5.9-12.8-13.5-13.1-6-.1-12.2 3.1-14.5 9.1-.8 1.8-1.2 4.1-1.3 6.3-.2 5.5 1.6 10.6 6.2 14.5 2.5 2 5.6 3 8.8 3.2 7.7 0 13.9-4.8 14.3-13.3zM235.5 73c0 1.6-1.4 2.9-3.1 2.9-1.9 0-3.1-1.3-3.1-2.9V22c0-1.6 1.3-2.9 3.1-2.9 1.7 0 3.1 1.3 3.1 2.9v51zm11.1-47.1c0 3.8-6.4 3.9-6.4 0v-3.8c0-3.9 6.4-3.9 6.4 0v3.8zm-6.3 9.2c0-3.7 6.2-3.7 6.2-.1v38.3c0 3.7-6.2 3.7-6.2 0V35.1zm37.8 40.4H256c-1.7 0-3.1-1.4-3.1-3.1V24.5c0-1.7 1.4-3.1 3.1-3.1h20.1c7.9 0 20.1 2.6 20.1 14.7 0 4.4-2.1 8.3-6.5 10.1 6.2 2 10.5 6.3 10.5 13.2 0 12.7-11.4 16.1-22.1 16.1zm-19-48.5v17.3h17.3c7.3 0 13.7-2 13.7-8.2 0-7.3-8.7-9.2-13.9-9.2h-17.1v.1zm0 43h19c7.5 0 15.7-2 15.7-10.5 0-6.7-5.8-9.6-13.2-9.6H259V70h.1zm51.2-12.7c0 7.8 6.3 13.3 13.2 13.3 8.2 0 16-6.8 16-16.1V34.8c0-1.9 1.1-3 3.1-3s3.2 1.1 3.2 3v38.1c0 3.9-6.1 4-6.1-.1v-5.4c-3.1 6.2-9.6 8.9-16.2 8.9-9.9 0-19.3-6.8-19.3-19V34.8c0-1.9 1.1-3 3.1-3 1.9 0 3.1 1.1 3.1 3v22.5h-.1zm48.2-18c2.7-5.7 7.8-7.2 12.7-7.2 2 0 3.2 1 3.2 3 0 1.9-1.3 2.9-3.2 2.9-8.8 0-12.5 7-12.5 15.6v19.2c0 1.8-1.4 3-3.1 3-1.9 0-3.1-1.2-3.1-3V35.1c0-3.7 6-4.1 6 0v4.2zM412 73.5c0 12.3-9.4 18.7-21 18.7-6.5 0-11.6-1.5-16.2-5.9-3.4-3.3 1.3-7.2 4.2-4.4 4.3 3.2 7.3 4.2 12.1 4.2 7.7 0 15-3.9 15-12.7v-4.6c-3 5.4-8.5 7.4-13.6 7.5-3.2.1-6.3-.4-9.2-1.6-7.9-3.2-12.8-11-12.9-19.6-.3-9.9 4.3-18.3 13.6-22.1 2.6-1 5.4-1.4 8-1.4 5.2 0 11.1 2 13.9 6.6v-3.1c0-1.9 1.1-3.1 3.1-3.1 1.9 0 3.1 1.2 3.1 3.1v38.4h-.1zm-29.3-32.8c-4.6 3.8-6.4 8.9-6.2 14.5.1 2.2.5 4.5 1.3 6.3 2.4 6 8.5 9.2 14.5 9.1h-.1c7.7-.3 13.6-5.9 13.6-13.1v-6.7c0-5.4-2.2-9.4-7.2-11.6-5.1-2.4-11.3-2.1-15.9 1.5zm62.4-8.3c9.6 2.6 15.6 10.5 15.7 21.3v-.1c.2 1.9-.7 3.9-4.2 3.9H423c1.1 7 7.1 12.8 15.6 12.8 3.9 0 8-1 11.3-3.6 3-2.7 7.4.8 4.1 4.2-3.9 3.7-9.6 5.2-15.1 5.1-6.6 0-13.3-2.6-17.3-7.6-9.2-12.1-5.2-31.6 10.6-36 4-1.2 8.6-1.1 12.9 0zm-22.3 20h32c-.6-7.2-5-12.8-11.6-14.5h.1c-2.8-.8-6.3-.8-9.2.1-6.8 1.8-10.8 7.5-11.3 14.4zm48.5-13.1c2.7-5.7 7.8-7.2 12.7-7.2 2 0 3.2 1 3.2 3 0 1.9-1.3 2.9-3.2 2.9-8.8 0-12.5 7-12.5 15.6v19.2c0 1.8-1.4 3-3.1 3-1.9 0-3.1-1.2-3.1-3V35.1c0-3.7 6-4.1 6 0v4.2zm-109.6 62.4l-2.2 13.6H356l2-12.2c.3-1.9.4-3.3.3-4.1-.1-.8-.5-1.5-1.1-1.9-.6-.5-1.4-.7-2.2-.7-1 0-2 .3-3 1-1 .6-1.9 1.5-2.6 2.6-.8 1.1-1.3 2.6-1.7 4.7l-1.8 10.5h-3.4l5.2-31h3.4l-2.2 13.3c.9-1.2 1.8-2 2.5-2.6.8-.6 1.6-1 2.3-1.3.8-.3 1.7-.4 2.5-.4 1.3 0 2.4.3 3.3.8.9.6 1.6 1.4 1.9 2.4.8 1.2.8 3 .3 5.3zm-21.1-3.1l-3.4.1v-.1c.1-.7-.1-1.3-.8-1.7-.6-.4-1.5-.6-2.6-.6-1.4 0-2.4.3-3.3.9-.8.6-1.3 1.4-1.5 2.2-.1.7 0 1.3.4 1.7.4.4 1.2.8 2.2 1.1l1.6.5 1.2.4c1.6.5 2.5.9 2.9 1.1.4.2.7.5 1.1.8.5.5.9 1.1 1 1.7.2.7.2 1.5 0 2.3-.3 2-1.4 3.7-2.9 5.1-1.7 1.4-3.8 2-6.4 2-1.7 0-3-.3-4.1-.8-1-.5-1.8-1.3-2.2-2.1-.5-1-.7-2-.5-3.2v-.1h3.4v.1c-.2 1 .1 1.7.6 2.3.6.6 1.7.9 3.2.9 1.4 0 2.6-.4 3.6-1.1s1.6-1.6 1.8-2.5c.2-1.4-.5-2.2-2-2.8l-1.7-.6-1.1-.4-2.2-.8c-2.5-1.1-3.6-2.8-3.1-5.2.3-1.7 1.2-3.2 2.7-4.5 1.6-1.3 3.5-1.9 6.1-1.9 2.5 0 4.2.6 5.2 1.7.8.9 1.1 2.1.8 3.5zm-22.8.5c-.3-1-.8-1.7-1.6-2.1-.7-.5-1.7-.7-2.7-.7-1.3 0-2.5.6-3.8 1.6-1.3 1.1-2.2 2.5-2.8 4.5h11l.1-.4c.1-1.1.1-2.1-.2-2.9zm3.2 4.8l-.2 1.2h-14.5c-.4 2.3-.1 4.2.8 5.7 1 1.5 2.4 2.2 4.6 2.2 1.5 0 2.6-.3 3.4-.9.8-.6 1.3-1.3 1.4-2v-.2h3.4v.2c-.2 1-.7 1.9-1.6 2.9-.9 1-1.9 1.8-3.2 2.2-1.3.5-2.6.8-4.2.8-3.1 0-5.4-1.1-6.6-3.2-1.4-2.1-1.8-4.8-1.2-8 .6-3.3 1.9-6 4.1-8.2 2.1-2.1 4.7-3.2 7.4-3.2 1.6 0 2.9.4 4 1.1 1.2.7 1.9 1.8 2.4 3.3.4 1.4.4 3.4 0 6.1zm-18.8-6.6c-.8-.4-1.6-.6-2.4-.6-1.3 0-2.6.6-4 1.8-1.4 1.2-2.3 3.3-2.8 6.2l-1.8 10.6h-3.4l3.6-21.4h3.4l-.7 3.8c.8-1.1 1.5-1.9 2.2-2.5.8-.6 1.6-1.1 2.3-1.4.8-.3 1.6-.5 2.3-.5.7 0 1.3.1 1.8.3l-.5 3.7zm-14.8-8.5H275l-1.8 10.3H284l-.5 3h-10.8l-2.2 13.3h-3.7l5-29.8h16.1l-.5 3.2zm-29.7 9.8l-3.4.1v-.1c.1-.7-.1-1.3-.8-1.7-.6-.4-1.5-.6-2.6-.6-1.4 0-2.4.3-3.3.9-.8.6-1.3 1.4-1.5 2.2-.1.7 0 1.3.4 1.7.4.4 1.2.8 2.2 1.1l1.6.5 1.2.4c1.6.5 2.5.9 2.9 1.1.4.2.7.5 1.1.8.5.5.9 1.1 1 1.7.2.7.2 1.5 0 2.3-.3 2-1.4 3.7-2.9 5.1-1.7 1.4-3.8 2-6.4 2-1.7 0-3-.3-4.1-.8-1-.5-1.8-1.3-2.2-2.1-.5-1-.7-2-.5-3.2v-.1h3.4v.1c-.2 1 .1 1.7.6 2.3.6.6 1.7.9 3.2.9 1.4 0 2.6-.4 3.6-1.1s1.6-1.6 1.8-2.5c.2-1.4-.5-2.2-2-2.8l-1.7-.6-1.1-.4-2.2-.8c-2.5-1.1-3.6-2.8-3.1-5.2.3-1.7 1.2-3.2 2.7-4.5 1.6-1.3 3.5-1.9 6.1-1.9 2.5 0 4.2.6 5.2 1.7.7.9 1.1 2.1.8 3.5zm-28.6 16.8c-1.7 2.9-2.9 4.8-3.9 5.8s-1.9 1.7-2.8 1.9c-1 .4-2.1.6-3.6.6h-2.5l.5-2.9h1.9c1 0 1.8-.1 2.5-.4s1.4-.7 1.9-1.3c.6-.6 1.4-1.9 2.5-3.8l.5-.9-5.4-20.6h3.8l4.2 16 9.1-16h3.4l-12.1 21.6zm-17.7-10.6c-3.6.9-5.9 1.8-7 2.5-1.1.8-1.8 1.8-1.9 2.8-.1.6 0 1.1.2 1.6s.6.9 1.1 1.2c.5.3 1.1.4 1.6.4 1 0 1.9-.3 2.9-.9 1-.6 1.9-1.4 2.5-2.3.7-1 1.1-2.1 1.4-3.4l.4-2.1-1.2.2zm5.2-4.2l-1.4 8.4c-.2 1-.3 1.9-.4 2.9-.1 1-.1 2.1.1 3.5h-3.6c-.2-1.2-.2-2.1 0-2.9-1.8 1.6-3.2 2.5-4.3 2.9-1.1.4-2.1.6-3.1.6-1.6 0-2.9-.5-3.9-1.6s-1.4-2.4-1.1-4.3c.4-2 1.5-3.7 3.2-4.8 1.9-1.2 4.8-2.1 9-2.9l1.9-.4.4-2.4c.2-1.4 0-2.2-.8-2.8-.8-.5-1.8-.8-2.9-.8-1.4 0-2.5.3-3.5 1-.9.7-1.5 1.5-1.6 2.3l-.1.3h-3.7l.1-.3c.2-1 .7-1.9 1.7-2.9s2-1.8 3.4-2.2 2.7-.8 4.3-.8c1.5 0 2.8.3 3.9.8 1.2.5 1.9 1.2 2.3 1.9.4.8.5 2.3.1 4.5zm-27 14.7h-3.4l-1.9-14v-3.1h-.3l-1.1 3.1-6.2 14h-3.4l-2.2-21.4h3.6l1.2 13.4-.1 3.2h.4l1.1-3.2 5.8-13.4h3.4l1.9 13.4.1 3.2h.4l1.1-3.2 5.8-13.4h3.2l-9.4 21.4zm-25.6 0h-3.4l5.2-31h3.4l-5.2 31zm-15.3-25l-7.7 13.8h10.3l-2.6-13.8zm4.7 25l-1.6-8.2h-12.5l-4.6 8.2h-3.4L148 85.5h3.7l5.8 29.8h-4.1z"/></svg>