<svg viewBox="0 0 512 512" xmlns="http://www.w3.org/2000/svg"><path d="M512 397.1c0 63.5-51.5 114.9-114.9 114.9H114.9C51.5 512 0 460.5 0 397.1V114.9C0 51.5 51.5 0 114.9 0h282.2C460.5 0 512 51.5 512 114.9v282.2z" fill="#f1574a"/><path d="M216.2 236.1c0 .7-.1 1.2-.1 1.7v42h58.2c0 4.3-5.1 21.7-21.4 32.7-9.5 6.5-20.3 9.4-31.6 10.2-8 .5-15.9-.3-23.6-2.7-24.3-7.8-42.4-29.8-44.8-56.5-.6-6.6-.2-13.2 1.3-19.7 7.2-31.6 37.2-55.1 71.5-50 15.2 2.2 24 8.6 32 15.4 10.5-10.5 20.9-20.9 31.6-31.7-2.6-1.9-8.6-8-19.3-14.1-15.9-9.2-33.2-13.8-51.6-14-3.5 0-6.9.2-10.4.3-6.1.2-12 1.3-17.9 2.8-23.5 6-43 18.3-58.3 37.2-14.7 18.1-22.6 38.9-24 62.1-.6 9.8.1 19.6 2.3 29.3 6.1 26.9 20.2 48.7 42.5 65 17.3 12.6 36.7 19.4 58 20.6 12 .6 23.9-.5 35.6-3.5 21.8-5.7 39.9-17.1 53.5-35.2 19.7-26.2 24.5-59.8 18.7-91.7-34.1-.2-68.1-.2-102.2-.2zm233.8 1.4h-36.8v-37.9h-29.7v37.9h-37.9v29.7h37.9v37.9h29.7v-37.9h37.9v-29.7z" fill="#fff"/></svg>