<svg width="512" height="512" xmlns="http://www.w3.org/2000/svg"><path fill="none" d="M-1-1h582v402H-1z"/><circle fill="#ff8b00" r="253.44" cy="256" cx="256"/><path fill="#FFF" d="M184.69 283.819c.05.049.089.099.139.148-.05.029-.089.049-.139.079-.049-.05-.089-.099-.139-.149.05-.018.09-.048.139-.078zm142.788.04a2.842 2.842 0 01-.168.188 1.44 1.44 0 00-.178-.099c.059-.059.119-.129.178-.188.059.029.109.069.168.099z"/><path fill="#FFF" d="M338.404 368.078H173.596c-6.637 0-12.017-5.38-12.017-12.017V235.365H350.42v120.696c.001 6.637-5.38 12.017-12.016 12.017z"/><path fill="#FFF" d="M374.422 252.546c5.013 5.013 1.429 13.582-5.66 13.534l-111.874-.757-112.241-.759c-7.037-.048-10.528-8.558-5.552-13.534l111.299-111.3a7.928 7.928 0 0111.212 0l112.816 112.816z"/><path fill="#ff8b00" d="M274.765 282.2h-37.53c-9.323 0-16.88 7.557-16.88 16.88v69.456h71.289V299.08c.001-9.323-7.557-16.88-16.879-16.88z"/></svg>