<svg xmlns="http://www.w3.org/2000/svg" viewBox="0 0 123.7 118"><style>.st1{fill:#fff}</style><g opacity=".5" id="Layer_1"><path class="st1" d="M96.7 11h1.9v5h1.2v-5h2V9.9h-5.1zm10.2-1.1l-1.8 2.3-1.9-2.3h-1V16h1.2v-4.2l1.5 2h.3l1.6-2V16h1.1V9.9zM31 101.7c4.5-1.5 9.5-3 15-4.5.5-9.8.5-24.1-1.9-41.6-.1-1.1.6-2.1 1.7-2.2 1.1-.1 2.1.6 2.2 1.7 2.3 17.1 2.5 31.2 2 41.1 8.7-2.2 18.5-4.3 29-5.9 1.4-6.5 2.8-14.7 3.5-24.4.1-1.1 1-1.9 2.1-1.8 1.1.1 1.9 1 1.8 2.1-.7 9.2-1.9 17.1-3.3 23.5 3.9-.5 7.8-1 11.8-1.4h.1c.5 0 1-.1 1.5-.1 6.7-8.9 10.7-20 10.7-32 0-29.3-23.8-53.1-53.1-53.1C25.1 2.9 1.3 26.7 1.3 56c0 14.3 5.7 27.3 14.9 36.8.4-.1.8-.3 1.2-.4 5-1.8 11.4-3.9 18.8-6 .8-.2 1.7.2 1.9 1.1.2.8-.2 1.7-1.1 1.9-7.3 2.1-13.5 4.1-18.4 5.9 3 2.7 6.4 5.1 9.9 7.1.7-.2 1.3-.4 2-.7h.5zm55.2-49c2.2-1.4 4.8-2.2 7.5-2.2 4.1 0 8 1.8 10.7 4.9.2.2.3.4.3.7 0 .5-.4.9-.9.9h-.1s-1.7-.2-4.1-.2c-1.8 0-4.3.1-6.7.7 1 .7 2 1.6 2.8 2.5 2.4 2.9 3.5 6.5 3.1 10.2 0 .4-.3.7-.7.8h-.2c-.3 0-.6-.1-.7-.4-.1-.1-5.4-7.5-11.7-7.9h-.4c-.4 0-.7-.1-1.1-.1-5.9 0-11.7 5.6-11.8 5.6-.2.2-.4.2-.6.2-.1 0-.3 0-.4-.1-.3-.2-.5-.5-.5-.9.5-5.2 3.7-9.5 8.2-11.4-4.7-2.1-10.4-2.5-10.5-2.5-.4 0-.7-.3-.8-.6s0-.7.3-1c2.5-2.1 5.7-3.2 8.9-3.2 3.4.3 6.8 1.6 9.4 4zm-57.1 8.7c-.1.1-.2.2-.4.2h-.1c-.2-.1-.3-.2-.4-.4-.4-4.8 1-9.5 4.1-13.2 1.4-1.7 3.1-3 4.9-4.1-3.7-1.2-7.9-1.4-10.8-1.4-3.1 0-5.4.3-5.5.3-.2 0-.4-.1-.5-.3-.1-.2-.1-.4.1-.6 3.4-4.1 8.5-6.5 13.9-6.5 3.6 0 7.2 1.1 10.1 3.1 3.4-3.3 7.9-5.2 12.7-5.2 4.2 0 8.3 1.5 11.5 4.2.2.1.2.3.2.5-.1.2-.2.3-.4.3-.1 0-9.2.6-15.8 4.1 6.5 2.3 11.3 8.1 12 15.4 0 .2-.1.4-.3.5h-.2c-.1 0-.3 0-.3-.1-.1-.1-8.2-7.8-16.3-7.8-.5 0-1.1 0-1.6.1h-.3c-.1 0-.2.1-.2.1-8.9.5-16.3 10.7-16.4 10.8zm3.6 43c3.9 1.8 8.1 3.1 12.4 3.8.2-1.9.5-4.5.8-7.7-4.8 1.3-9.2 2.6-13.2 3.9zm17.2-5c-.3 4-.6 7.1-.9 9.4 1.8.2 3.6.3 5.4.3 7.3 0 14.2-1.5 20.5-4.1.8-2.1 2-6 3.4-11.5-10.3 1.6-19.8 3.7-28.4 5.9zm30.1 3.1c5.3-2.9 10-6.7 13.9-11.1-3.8.4-7.6.9-11.3 1.4-.9 4-1.8 7.2-2.6 9.7z"/><path class="st1" d="M44.5 112c-.2 1.1.5 2.1 1.6 2.3h.4c.9 0 1.8-.7 2-1.6 0-.2.3-1.6.6-4-1.3-.1-2.7-.3-4-.6-.3 2.6-.6 3.9-.6 3.9zm-38-1c-.1 0-.1 0 0 0-.9.4-1.2 1.3-.8 2.1.3.6.8.9 1.4.9.2 0 .5 0 .7-.2h.1c.9-.4 10-4.6 24.8-9.4-1.4-.6-2.7-1.3-4-2-13.3 4.4-21.5 8.2-22.2 8.6zm67.7-4.2c-.4 1 0 2.2 1.1 2.6.3.1.5.2.8.2.8 0 1.5-.5 1.8-1.2.1-.2.9-2.2 2.1-5.8-1.6.9-3.3 1.7-5.1 2.4-.4 1.1-.6 1.8-.7 1.8zm44.9-19.9h-.3c-1.9 0-3.9.1-5.8.1h-.1c-1.9.1-3.8.1-5.6.2h-.7c-1.5.1-3.1.2-4.6.3-.7 0-1.3.1-2 .2l-3 .3h-.2c-.9 1.2-1.8 2.3-2.8 3.4.8-.1 1.7-.2 2.5-.3 1.4-.1 2.7-.2 4.1-.4.4 0 .9-.1 1.3-.1 1.7-.1 3.4-.2 5.2-.3h.4c3.8-.2 7.7-.3 11.5-.4.6 0 1.1-.4 1.4-.9.1-.1.1-.3.1-.4v-.3c-.1-.6-.7-1.3-1.4-1.4zM16.2 92.8c-7.5 2.7-11.7 4.6-11.9 4.7-.8.4-1.1 1.3-.8 2.1.3.6.8.9 1.4.9.2 0 .4 0 .6-.1 0 0 .1 0 .2-.1.1 0 .1-.1.2-.1H6s.1 0 .2-.1c1.6-.7 5.9-2.5 12.4-4.8-.8-.8-1.6-1.6-2.4-2.5z"/></g></svg>