<svg height="64" width="64" xmlns="http://www.w3.org/2000/svg"><circle cx="32" cy="32" fill="#E0E0D1" r="32"/><circle cx="32" cy="32" fill="#76C2AF" r="15.4"/><circle cx="32" cy="32" fill="#4F5D73" r="8.5"/><path d="M43.086 17.872c-6.148-1.315-13.977-.786-20.297.886A15.35 15.35 0 0022 23.6C22 32.105 28.895 39 37.4 39c5.463 0 10.249-2.852 12.983-7.14-.996-5.832-2.622-12.988-7.297-13.988z" fill="#FFF" opacity=".2"/><circle cx="36" cy="26" fill="#FFF" r="2"/><path d="M32 20.544c6.661 0 12.08 5.419 12.08 12.081S38.661 44.705 32 44.705s-12.081-5.419-12.081-12.08S25.339 20.544 32 20.544m0-3.294c-8.492 0-15.375 6.884-15.375 15.375S23.508 48 32 48s15.375-6.884 15.375-15.375c0-8.492-6.884-15.375-15.375-15.375z" fill="#231F20" opacity=".2"/><path d="M32 19c7.168 0 13 5.832 13 13s-5.832 13-13 13-13-5.832-13-13 5.832-13 13-13m0-3c-8.837 0-16 7.163-16 16s7.163 16 16 16 16-7.163 16-16-7.163-16-16-16z" fill="#4F5D73"/><path d="M32 17.409c8.287 0 15.029 6.742 15.029 15.029 0 8.287-6.742 15.029-15.029 15.029s-15.029-6.742-15.029-15.029c0-8.287 6.742-15.029 15.029-15.029m0-3.221c-10.079 0-18.25 8.171-18.25 18.25s8.171 18.25 18.25 18.25 18.25-8.171 18.25-18.25-8.171-18.25-18.25-18.25z" fill="#231F20" opacity=".2"/><path d="M32 16c8.822 0 16 7.178 16 16s-7.178 16-16 16-16-7.178-16-16 7.178-16 16-16m0-3c-10.493 0-19 8.507-19 19s8.507 19 19 19 19-8.507 19-19-8.507-19-19-19z" fill="#4F5D73"/><path d="M32 14.54c9.886 0 17.93 8.043 17.93 17.93S41.887 50.4 32 50.4s-17.93-8.043-17.93-17.93S22.113 14.54 32 14.54m0-3.165c-11.65 0-21.094 9.444-21.094 21.094S20.35 53.563 32 53.563s21.094-9.444 21.094-21.094S43.65 11.375 32 11.375z" fill="#231F20" opacity=".2"/><circle cx="32" cy="34" fill="#231F20" r="22" opacity=".2"/><path d="M32 13c10.477 0 19 8.523 19 19s-8.523 19-19 19-19-8.523-19-19 8.523-19 19-19m0-3c-12.15 0-22 9.85-22 22s9.85 22 22 22 22-9.85 22-22-9.85-22-22-22z" fill="#4F5D73"/></svg>