<svg viewBox="-61 0 512 512.001" xmlns="http://www.w3.org/2000/svg"><path d="M172.41 326.086L152.77 328c-6.813.664-13.043-4.059-13.997-10.633L95.867 20.977c-1.258-8.684 4.207-16.559 12.16-17.454l30.7-3.441c7.98-.894 15.207 5.578 16.05 14.332l28.801 298.563c.64 6.617-4.34 12.441-11.168 13.109zm0 0" fill="#fccf3f"/><path d="M121.418 348.602l-19.508.968c-6.77.336-12.816-4.57-13.578-11.047L54.004 46.746C53 38.203 58.637 30.801 66.543 30.352l30.496-1.743c7.918-.449 14.887 6.239 15.48 14.817L132.83 336.3c.452 6.5-4.638 11.965-11.411 12.3zm0 0" fill="#efc03c"/><path d="M92.254 369.02l-19.125 2.203c-6.629.765-12.996-3.657-14.297-9.957L.34 78.196c-1.707-8.27 3.183-15.91 10.89-16.93l29.754-3.938c7.739-1.027 15.153 5.004 16.47 13.352l44.995 285.53c1 6.353-3.547 12.04-10.195 12.81zm124.726-42.934L236.621 328c6.813.664 13.043-4.059 13.996-10.633l42.91-296.387c1.254-8.687-4.21-16.562-12.164-17.453L250.664.082c-7.98-.895-15.207 5.578-16.05 14.332l-28.802 298.563c-.64 6.617 4.34 12.441 11.168 13.109zm0 0" fill="#fccf3f"/><path d="M267.973 348.602l19.511.968c6.766.336 12.813-4.57 13.575-11.047l34.328-291.777c1.004-8.543-4.633-15.945-12.54-16.394l-30.495-1.743c-7.918-.449-14.887 6.239-15.48 14.817L256.561 336.3c-.453 6.5 4.637 11.965 11.41 12.3zm0 0" fill="#efc03c"/><path d="M297.137 369.02l19.125 2.203c6.629.765 12.996-3.657 14.297-9.957l58.492-283.07c1.707-8.27-3.184-15.91-10.89-16.93l-29.755-3.938c-7.738-1.027-15.152 5.004-16.465 13.352l-44.996 285.53c-1 6.353 3.547 12.04 10.192 12.81zm0 0" fill="#fccf3f"/><path d="M201.39 358.059h-19.488c-6.765 0-12.336-5.149-12.5-11.594L161.98 56.28c-.218-8.492 6.07-15.484 13.98-15.484h30.474c7.91 0 14.218 6.992 14.027 15.484l-6.602 290.184c-.144 6.445-5.699 11.594-12.468 11.594zm0 0" fill="#efc03c"/><path d="M202.227 384.754l-17.903 7.344c-6.21 2.55-13.394-.012-16.133-5.774L44.981 127.051c-3.602-7.578-.657-16.29 6.574-19.313l27.879-11.656c7.242-3.027 15.824.871 19.058 8.617l110.531 264.863c2.457 5.887-.578 12.641-6.796 15.192zm0 0" fill="#fccf3f"/><path d="M202.414 431.047l-19.328.89c-6.707.31-12.61-4.519-13.25-10.867l-28.781-285.61c-.84-8.35 4.863-15.562 12.687-15.976l30.18-1.593c7.836-.414 14.61 6.144 15.047 14.527l14.96 286.61c.333 6.37-4.8 11.71-11.515 12.019zm83.395-47.899l18.777.844c6.512.29 12.355-4.273 13.117-10.273l34.063-268.996c.992-7.84-4.38-14.602-11.946-14.989l-29.195-1.496c-7.582-.39-14.281 5.762-14.89 13.63l-20.856 269.917c-.465 6.024 4.406 11.07 10.93 11.363zm0 0" fill="#efc03c"/><path d="M213.54 426.738l20.398 3.219c7.078 1.113 13.742-3.668 14.953-10.734l47.906-279.82c1.23-7.2-3.66-14.016-10.875-15.153l-27.8-4.383c-7.216-1.137-13.966 3.844-15.009 11.074L202.61 411.926c-1.023 7.097 3.848 13.695 10.93 14.812zm0 0" fill="#fccf3f"/><path d="M289.652 172.824c-4.082 0-7.707 2.54-9.168 6.348-13.238 34.48-46.648 58.96-85.789 58.96-39.14 0-72.55-24.48-85.789-58.96-1.46-3.809-5.086-6.348-9.164-6.348H9.805c-6.078 0-10.692 5.477-9.66 11.469l55.093 319.57a9.804 9.804 0 009.66 8.137h259.594a9.804 9.804 0 009.66-8.137l55.094-319.57c1.031-5.992-3.582-11.469-9.66-11.469zm0 0" fill="#fc4e51"/><path d="M379.586 172.824h-61.84c6.082 0 10.695 5.477 9.66 11.469l-55.09 319.57a9.804 9.804 0 01-9.66 8.137h61.836a9.804 9.804 0 009.66-8.137l55.094-319.57c1.031-5.992-3.582-11.469-9.66-11.469zm0 0" fill="#ea3942"/><path d="M363.734 332.258H25.656l10.7 62.062h316.68zm0 0" fill="#f3e8d7"/><path d="M363.734 332.258h-61.836L291.2 394.32h61.836zm0 0" fill="#e5d8c6"/><path d="M275.227 365.137c0 44.476-36.055 80.531-80.532 80.531-44.476 0-80.53-36.055-80.53-80.531 0-44.477 36.054-80.532 80.53-80.532 44.477 0 80.532 36.055 80.532 80.532zm0 0" fill="#efa335"/><path d="M231.074 293.297a80.524 80.524 0 013.41 23.203c0 44.477-36.058 80.531-80.53 80.531a80.189 80.189 0 01-36.38-8.691c9.965 33.16 40.715 57.328 77.121 57.328 44.477 0 80.532-36.055 80.532-80.531 0-31.383-17.961-58.551-44.153-71.84zm0 0" fill="#fd8f31"/></svg>