<svg xmlns="http://www.w3.org/2000/svg" viewBox="0 0 512.001 512.001"><path d="M466.347 372.785H45.653c-8.415 0-15.238-6.823-15.238-15.238v-59.632c0-8.415 6.823-15.238 15.238-15.238 22.654 0 33.335-5.403 45.702-11.661 13.845-7.005 29.539-14.944 59.471-14.944 29.931 0 45.625 7.939 59.47 14.943 12.369 6.258 23.052 11.661 45.713 11.661 22.654 0 33.335-5.403 45.702-11.661 13.845-7.005 29.539-14.945 59.471-14.945 29.926 0 45.617 7.939 59.461 14.943 12.367 6.258 23.047 11.661 45.702 11.661 8.415 0 15.238 6.823 15.238 15.238v59.632c.002 8.419-6.821 15.241-15.236 15.241z" fill="#a55a3d"/><path d="M466.347 282.677c-22.655 0-33.335-5.403-45.702-11.661-13.843-7.004-29.534-14.943-59.461-14.943-29.933 0-45.626 7.939-59.471 14.945-12.367 6.257-23.048 11.661-45.702 11.661h-.01v90.108h210.347c8.415 0 15.238-6.823 15.238-15.238v-59.632c-.001-8.417-6.824-15.24-15.239-15.24z" fill="#a2400e"/><path d="M466.347 313.154c-29.927 0-45.618-7.939-59.461-14.945-12.366-6.257-23.047-11.661-45.702-11.661-22.662 0-33.344 5.404-45.713 11.662-13.844 7.004-29.535 14.942-59.46 14.942-29.931 0-45.624-7.939-59.47-14.943-12.369-6.258-23.052-11.661-45.713-11.661-22.662 0-33.344 5.404-45.713 11.662-13.844 7.004-29.535 14.942-59.46 14.942-8.415 0-15.238-6.823-15.238-15.238v-86.237c0-8.415 6.823-15.238 15.238-15.238h420.693c8.415 0 15.238 6.823 15.238 15.238v86.237c-.001 8.417-6.824 15.24-15.239 15.24z" fill="#b7f07d"/><path d="M466.347 196.44H256v116.714h.01c29.926 0 45.616-7.938 59.46-14.942 12.369-6.258 23.051-11.662 45.713-11.662 22.655 0 33.335 5.403 45.702 11.661 13.843 7.005 29.534 14.944 59.461 14.944 8.415 0 15.238-6.823 15.238-15.238V211.68c.001-8.418-6.822-15.24-15.237-15.24z" fill="#7fdc48"/><path d="M496.762 237.073H15.238C6.823 237.073 0 230.25 0 221.835 0 123.351 80.123 43.229 178.607 43.229h154.787C431.877 43.229 512 123.351 512 221.835c0 8.415-6.823 15.238-15.238 15.238zm-52.508 231.699H67.747C30.391 468.772 0 438.381 0 401.027v-33.318c0-8.415 6.823-15.238 15.238-15.238h481.524c8.415 0 15.238 6.823 15.238 15.238v33.318c0 37.354-30.391 67.745-67.746 67.745z" fill="#ffda68"/><g fill="#ffa918"><path d="M333.393 43.229H256v193.844h240.762c8.415 0 15.238-6.823 15.238-15.238 0-98.484-80.123-178.606-178.607-178.606zm-180.05 136.957c7.971 0 15.607-7.008 15.238-15.238-.37-8.256-6.696-15.238-15.238-15.238-7.971 0-15.607 7.008-15.238 15.238.37 8.256 6.696 15.238 15.238 15.238z"/><path d="M256 180.186c7.971 0 15.607-7.008 15.238-15.238-.37-8.256-6.696-15.238-15.238-15.238-7.971 0-15.607 7.008-15.238 15.238.37 8.256 6.696 15.238 15.238 15.238zm-51.328-49.594c7.971 0 15.607-7.009 15.238-15.238-.37-8.256-6.696-15.238-15.238-15.238-7.971 0-15.607 7.009-15.238 15.238.37 8.256 6.695 15.238 15.238 15.238z"/></g><path d="M307.328 130.592c7.971 0 15.607-7.009 15.238-15.238-.37-8.256-6.696-15.238-15.238-15.238-7.971 0-15.607 7.009-15.238 15.238.37 8.256 6.696 15.238 15.238 15.238zm51.329 49.594c7.971 0 15.607-7.008 15.238-15.238-.37-8.256-6.696-15.238-15.238-15.238-7.971 0-15.607 7.008-15.238 15.238.37 8.256 6.695 15.238 15.238 15.238zm-87.419-15.238c-.37-8.256-6.696-15.238-15.238-15.238v30.476c7.971 0 15.607-7.009 15.238-15.238z" fill="#fc7718"/><path d="M496.762 352.471H256v116.301h188.254c37.355 0 67.747-30.391 67.747-67.747v-33.318c-.001-8.414-6.824-15.236-15.239-15.236z" fill="#ffa918"/></svg>