<svg viewBox="0 0 398.905 398.905" xmlns="http://www.w3.org/2000/svg"><circle cx="199.452" cy="199.452" r="168.838" fill="#f5efe0"/><path d="M199.452 330.629c-72.331 0-131.177-58.846-131.177-131.177S127.121 68.276 199.452 68.276s131.177 58.846 131.177 131.177-58.846 131.176-131.177 131.176zm0-259.353c-70.677 0-128.177 57.5-128.177 128.177s57.5 128.177 128.177 128.177 128.177-57.5 128.177-128.177-57.5-128.177-128.177-128.177z" fill="#393e86"/><path fill="#378f5d" d="M0 99.564h398.905v25.244H0z"/><path fill="#49bf7c" d="M0 124.264h398.905v25.244H0z"/><path fill="#378f5d" d="M0 149.508h398.905v25.244H0z"/><path fill="#49bf7c" d="M0 174.209h398.905v25.244H0z"/><path fill="#378f5d" d="M0 199.452h398.905v25.244H0z"/><path fill="#49bf7c" d="M0 224.153h398.905v25.244H0z"/><path fill="#378f5d" d="M0 249.397h398.905v25.244H0z"/><path fill="#49bf7c" d="M0 274.097h398.905v25.244H0z"/><path d="M162.207 163.478v161.366c0 11.657-13.94 17.664-22.413 9.658l-4.722-4.461a229.152 229.152 0 01-71.775-166.563h98.91z" fill="#ebeae8"/><path d="M162.207 60.642v102.837h-98.91v-3.927c0-54.627 44.284-98.91 98.91-98.91z" fill="#c2b9b9"/><circle cx="266.391" cy="290.236" r="65.444" fill="#f3cfad"/><path d="M316.214 290.236c0 27.472-22.351 49.823-49.824 49.823-27.472 0-49.823-22.351-49.823-49.823s22.351-49.823 49.823-49.823c27.473 0 49.824 22.351 49.824 49.823z" fill="#af6c5a"/><circle cx="290.586" cy="274.669" r="9.099" fill="#55bc7f"/><circle cx="243.721" cy="309.818" r="9.099" fill="#55bc7f"/><path fill="#ef5b62" d="M236.36 271.433l4.472-4.473 10.197 10.197-4.473 4.472zm50.298 47.834l-4.472-4.473 10.196-10.196 4.473 4.472z"/><path d="M270.452 274.929c5.221 8.199 5.983 17.958 2.93 26.448-8.985-.824-17.506-5.642-22.727-13.841-5.221-8.199-5.983-17.958-2.93-26.448 8.985.824 17.506 5.642 22.727 13.841z" fill="#227748"/><path d="M227.437 178.326c-22.236 0-40.262-18.026-40.262-40.261v-11.033c0-44.472 36.051-80.523 80.523-80.523v91.556c0 22.235-18.025 40.261-40.261 40.261z" fill="#bbef84"/><path fill="#55bc7f" d="M237.745 93.452l29.991-26.093.139 26.093zm0 36l29.991-26.093.139 26.093z"/><path fill="none" stroke="#347453" stroke-width="4" stroke-miterlimit="10" d="M225.452 177.452v-95"/><path d="M90.92 162.494a1.5 1.5 0 01-.767-2.79l43.666-25.909a1.501 1.501 0 011.532 2.58l-43.666 25.909c-.24.143-.504.21-.765.21zm0 30a1.5 1.5 0 01-.767-2.79l43.666-25.909a1.501 1.501 0 011.532 2.58l-43.666 25.909c-.24.143-.504.21-.765.21zm0 30a1.5 1.5 0 01-.767-2.79l43.666-25.909a1.501 1.501 0 011.532 2.58l-43.666 25.909c-.24.143-.504.21-.765.21zm0 30a1.5 1.5 0 01-.767-2.79l43.666-25.909a1.501 1.501 0 011.532 2.58l-43.666 25.909c-.24.143-.504.21-.765.21z" fill="#996250"/><path d="M228.858 206.959c-15.723-15.723-15.723-41.215 0-56.938l7.801-7.801c31.446-31.446 82.43-31.446 113.877 0l-64.74 64.74c-15.722 15.722-41.215 15.722-56.938-.001z" fill="#bbef84"/><path fill="#55bc7f" d="M296.162 154.234l39.657 2.756-18.352 18.549zm-25.456 25.455l39.658 2.756-18.353 18.55z"/><path fill="none" stroke="#347453" stroke-width="4" stroke-miterlimit="10" d="M228.073 204.938l67.175-67.175"/></svg>