<svg height="512pt" viewBox="0 0 512 512" width="512pt" xmlns="http://www.w3.org/2000/svg"><path d="M305.922 156.719A14.991 14.991 0 00295 152H35a14.99 14.99 0 00-10.922 4.719 14.994 14.994 0 00-4.05 11.187l20 330C40.507 505.824 47.065 512 55 512h220c7.934 0 14.492-6.176 14.973-14.094l20-330a14.994 14.994 0 00-4.051-11.187zm0 0" fill="#e8edf5"/><path d="M289.973 497.906l20-330a14.994 14.994 0 00-4.051-11.187A14.991 14.991 0 00295 152H165.04v360H275c7.934 0 14.492-6.176 14.973-14.094zm0 0" fill="#ccd3e2"/><path d="M164.984 122.004c-2.808 0-5.648-.79-8.18-2.442-6.937-4.523-8.894-13.816-4.37-20.757l60-92A15.001 15.001 0 01225 0h60c8.285 0 15 6.715 15 15s-6.715 15-15 15h-51.875l-55.563 85.195c-2.875 4.41-7.675 6.809-12.578 6.809zm0 0" fill="#525c5c"/><path d="M315 182H15c-8.285 0-15-6.715-15-15v-60c0-8.285 6.715-15 15-15h300c8.285 0 15 6.715 15 15v60c0 8.285-6.715 15-15 15zm0 0" fill="#ff455a"/><path d="M315 92H165.04v90H315c8.285 0 15-6.715 15-15v-60c0-8.285-6.715-15-15-15zm0 0" fill="#bf0032"/><path d="M447 392H223.043c-12.043 0-27.234-8.285-33.395-18.637C168.778 338.29 193.73 302 227 302h223.957c12.043 0 27.234 8.285 33.395 18.637C505.222 355.71 480.27 392 447 392zm0 0" fill="#ffe54e"/><path d="M492 347c0-24.813-20.188-45-45-45H337v90h110c24.813 0 45-20.188 45-45zm0 0" fill="#ffbd1c"/><path d="M497 332H177c-8.285 0-15-6.715-15-15 0-52.383 42.617-95 95-95h160c52.383 0 95 42.617 95 95 0 8.285-6.715 15-15 15zm0 0" fill="#cf957a"/><path d="M417 222h-80v110h160c8.285 0 15-6.715 15-15 0-52.383-42.617-95-95-95zm0 0" fill="#b27861"/><path d="M447 452H227c-24.813 0-45-20.188-45-45s20.188-45 45-45h220c24.813 0 45 20.188 45 45s-20.188 45-45 45zm0 0" fill="#ff455a"/><path d="M447 452c24.813 0 45-20.188 45-45s-20.188-45-45-45H337v90zm0 0" fill="#bf0032"/><path d="M437 512H237c-41.355 0-75-33.645-75-75 0-8.285 6.715-15 15-15h320c8.285 0 15 6.715 15 15 0 41.355-33.645 75-75 75zm0 0" fill="#cf957a"/><path d="M497 422H337v90h100c41.355 0 75-33.645 75-75 0-8.285-6.715-15-15-15zm0 0" fill="#b27861"/><path d="M60 245a74.658 74.658 0 00-34.781 8.555l8.277 136.613A74.849 74.849 0 0060 395c41.422 0 75-33.578 75-75s-33.578-75-75-75zm0 0" fill="#ff455a"/></svg>