<svg xmlns="http://www.w3.org/2000/svg" viewBox="0 0 512 512"><path d="M391 195c0 8.399-6.599 15-15 15H136c-8.401 0-15-6.601-15-15 0-69.3 52.5-126.601 120-134.101 4.799-.599 9.901-.899 15-.899s10.201.3 15 .899C338.5 68.399 391 125.7 391 195z" fill="#cae8f9"/><path d="M391 195c0 8.399-6.599 15-15 15H256V60c5.099 0 10.201.3 15 .899C338.5 68.399 391 125.7 391 195z" fill="#b7e0f6"/><path d="M387.7 226.8L377.5 331l-33 31h-177l-33-31-10.2-104.2c-.899-8.401 5.101-15.901 13.5-16.8h236.4c8.399.899 14.399 8.399 13.5 16.8z" fill="#cae8f9"/><path d="M387.7 226.8L377.5 331l-33 31H256V210h118.2c8.399.899 14.399 8.399 13.5 16.8z" fill="#b7e0f6"/><path d="M271 225v121c0 8.399-6.599 16-15 16s-15-7.601-15-16V225c0-8.401 6.599-15 15-15s15 6.599 15 15z" fill="#bf6015"/><path d="M377.5 331L364 472.099C361.3 494.9 342.1 512 318.999 512H193.001c-23.101 0-42.301-17.1-45-39.901L134.5 331h243z" fill="#fec478"/><path d="M256 331h121.5L364 472.099C361.3 494.9 342.1 512 318.999 512H256V331z" fill="#feb756"/><path d="M391 15c0 8.399-6.599 15-15 15h-90c-8.401 0-15 6.599-15 15v15.899c-4.799-.599-9.901-.899-15-.899s-10.201.3-15 .899V45c0-13.2 5.7-25.201 15-33.3C263.8 4.499 274.3 0 286 0h90c8.401 0 15 6.599 15 15z" fill="#994c10"/><g fill="#bf6015"><path d="M271 60.899V195c0 8.399-6.599 15-15 15s-15-6.601-15-15V60.899c4.799-.599 9.901-.899 15-.899s10.201.3 15 .899z"/><circle cx="226" cy="437" r="15"/></g><circle cx="286" cy="407" r="15" fill="#994c10"/><path d="M421 210c0 16.5-13.5 30-30 30H121c-16.5 0-30-13.5-30-30s13.5-30 30-30h270c16.5 0 30 13.5 30 30z" fill="#b7e0f6"/><path d="M421 210c0 16.5-13.5 30-30 30H256v-60h135c16.5 0 30 13.5 30 30z" fill="#a4d9f5"/></svg>